<svg xmlns="http://www.w3.org/2000/svg" viewBox="0 0 555.3 192.49">
    <defs>
        <style>
            .cls-1{fill:#fff;}.cls-2{fill:#202020;}
        </style>
    </defs>
    <title>
        line
    </title>
    <g id="Layer_2" data-name="Layer 2">
        <g id="Layer_1-2" data-name="Layer 1">
            <path d="M4,39S52.06-62.78,256,95.11,552,161,552,161" class="cls-1"/>
            <path d="M555.3,164.3a1.65,1.65,0,0,0-.77-.89.77.77,0,0,0-1.06.28c.35.72.69,1.46,1,2.2l.38-.76.2-.39Z" class="cls-2"/>
            <path d="M547.65,165.11c-.16,1.5,0,3.85,1.78,5.16-.43-2.45.36-1.84-.35-4.65.55-.78,1.72-.4,2.13.35-.11-.64,1.46-.54.9-2-2.09-.56-3.23.25-3.59,2.38C547.94,166.17,547.84,165.49,547.65,165.11Z" class="cls-2"/>
            <path d="M465.39,184.3l.55.28A1,1,0,0,0,465.39,184.3Z" class="cls-2"/>
            <path d="M413.52,175.22a.59.59,0,0,0,.7-.32C413.82,175,413.49,175,413.52,175.22Z" class="cls-2"/>
            <path d="M405.59,170.3a5.11,5.11,0,0,0,.46.3C405.92,170.34,405.76,170.17,405.59,170.3Z" class="cls-2"/>
            <path d="M465.39,184.3l-1.39-.75C463.89,184.3,464.71,184.12,465.39,184.3Z" class="cls-2"/>
            <path d="M540.31,176.48a1.9,1.9,0,0,0,.42-.92,6.16,6.16,0,0,1-.56.58C540.22,176.26,540.27,176.36,540.31,176.48Z" class="cls-2"/>
            <path d="M488.35,181.38l.42,0a6.62,6.62,0,0,0,.23-1C488.79,180.7,488.57,181.05,488.35,181.38Z" class="cls-2"/>
            <path d="M505.51,177.86c-.4,0-.07,2,0,2.84a1.93,1.93,0,0,1,.53-1.53A6.28,6.28,0,0,0,505.51,177.86Z" class="cls-2"/>
            <path d="M532.88,171.43l.33-.46C533.13,171.1,533,171.27,532.88,171.43Z" class="cls-2"/>
            <path d="M475.77,181.9a2.69,2.69,0,0,0-.18-.7A1.86,1.86,0,0,0,475.77,181.9Z" class="cls-2"/>
            <path d="M23.42,30.24A2,2,0,0,0,23.2,30C23.26,30.18,23.33,30.31,23.42,30.24Z" class="cls-2"/>
            <path d="M3.55,38.78l.05-.32c-.32-.2-.63-.4-1-.57C2.94,38.2,3.24,38.5,3.55,38.78Z" class="cls-2"/>
            <path d="M390.91,162.73s0,0,.06.06C391.44,162.74,391.2,162.68,390.91,162.73Z" class="cls-2"/>
            <path d="M260,87.91c.33,2.45-3.66.07-2.74,3.21C257.53,90.36,261.06,90.13,260,87.91Z" class="cls-2"/>
            <path d="M539.75,176.5a5.7,5.7,0,0,1-.68.39A1.38,1.38,0,0,0,539.75,176.5Z" class="cls-2"/>
            <path d="M257.26,91.12h0l.11.31Z" class="cls-2"/>
            <path d="M355.84,148.83a2.79,2.79,0,0,0,0,.95A1.71,1.71,0,0,0,355.84,148.83Z" class="cls-2"/>
            <path d="M380.51,162.94l-.56-.5A1.47,1.47,0,0,0,380.51,162.94Z" class="cls-2"/>
            <path d="M341.48,144.59c-.26-.32-.25-.62-.83-.63a.84.84,0,0,0,0,.28C341,144.1,341.25,144.11,341.48,144.59Z" class="cls-2"/>
            <path d="M328,137.15a4,4,0,0,0,0,.49l.47.15Z" class="cls-2"/>
            <path d="M61.9,15.27a8,8,0,0,1-.79-1.72C61.43,14.93,59.39,15.62,61.9,15.27Z" class="cls-2"/>
            <path d="M539.76,175.52c.16.48.16.76,0,1a3.62,3.62,0,0,0,.42-.36A1.13,1.13,0,0,0,539.76,175.52Z" class="cls-2"/>
            <path d="M333.59,158l-2.08-1.47A10.06,10.06,0,0,0,333.59,158Z" class="cls-2"/>
            <path d="M163.84,43.83l-.61,0A.5.5,0,0,0,163.84,43.83Z" class="cls-2"/>
            <path d="M324.79,153.16a3.69,3.69,0,0,0-.57-1.86,1.7,1.7,0,0,0-.51.3Z" class="cls-2"/>
            <path d="M61.1,13.53a0,0,0,0,1,0,0A0,0,0,0,0,61.1,13.53Z" class="cls-2"/>
            <path d="M47.39,20.56c2-.49.32-2.72.39-4.27,2.35-1.31,1.59,1.6,2.7,2.71,1.37-.95,2.15-3.52,3.35-3.65.16.4.41.51.23,1.09.65-1.22,1.94-1.32,3.22-1.57a4.7,4.7,0,0,0,3.51-1.95,1.76,1.76,0,0,1,.31.61,11.62,11.62,0,0,1-.6-3.5c1-.17,1.81-1.73,2.29-.08-.63,0-.64.66-.89,1.2l1-.77c1.09,2.39-1.4.89-1.27,2.68,2-.86,4.32-3,5.94-2.34.35,2.37-3.66.94-1.52,3l-2.44-.82c2,3.68-1.45-.21.42,3.74a5.06,5.06,0,0,0,3.24-.39,7.12,7.12,0,0,1,1.37-.42,4.75,4.75,0,0,1,1.9.17c.72-1.3-.21-2,.52-3.26,2.31-1.11,3.17.42,3.82,1.83a4.69,4.69,0,0,0,1,1.71c.42.31,1,.25,1.84-.43,1-1.49,1.58-4.45,3.82-2.62L80.53,15.8c3,.58,2.18-3.66,5.21-1.53-.72,1-2.54.63-2.11,1,1.8,2.33,1.66-1.4,3.28-1.12v2.41a30.86,30.86,0,0,0,5.3-.36c.93-.11,1.87-.22,2.82-.29a16.47,16.47,0,0,1,2.81.1c-.35.64-1.12,1.23-.43,2.13a18,18,0,0,1,7.09,1.53,43.67,43.67,0,0,1,6.37,3.74l2.24-1.48c.38.13.43,1.09-.1,1.35,1.45,1.24.48-1.22,1.53-1.75,1,.15.91,1.5.11,1.91.44-.1.92-.19,1.43-.27s1-.09,1.58-.11a19.59,19.59,0,0,1,3.4.18c2.27.33,4.41,1.14,5.58,2.71l-.82.36c2.11,1.61,4.22-2.92,5.76-.23l-.56.16a57.72,57.72,0,0,0,7.82,3.45,11.66,11.66,0,0,1,6.12,4.8c2-2.34,4.47,3.53,6.56-.05,2,3.22.9,3.41,4.29,6.73,1,.72,2.75-1.48,4.28-1.18l-1,1.94L162,40.85l-.24,2.78,1.5.15a1.69,1.69,0,0,1-.24-1.91c2.41.14,4,3.78,3.56,4.77,1.8.28,3.58.62,5.39.94-.52.7-1.42.53-2.29.68,3.47-.56-.66,2.23,2.52,1.72-.06-.6.78-1,1.05-1.39.46,1.77,2.94,3.19,5.07,3.76l-1.1,1.09a34.65,34.65,0,0,0,5.32,2.81,56.69,56.69,0,0,1,5.68,2.94c-1-1.4.68-3.42,1.9-3l-.76,2.21c1.43-.77-.68-1.43,1.65-2,1.25,1.08-.43,2.78-1.6,2.93l2.08.36c-.26.64-.84.7-1.4,1.38,1.44-.79,1.67,3.71,4,2.23l-.27.63c3.67,2.24,5.7,2.72,8.7,4.56,1.14-1.61,2.05-.48,3.8-1.23,1.82,2,3.36,4.84,6.06,6.43,2.38.4,1.47-1,2.95-1.45a2.29,2.29,0,0,0,.32,2.19c.3.63.45,1.08-.58,1.15a32.71,32.71,0,0,0,8.84,4c0-.89-.29-1.49.3-1.82a1.61,1.61,0,0,1,.58,2.39l-.3,0c3,.44,4.73,3.3,6.44,6s3.3,5.21,6.12,5h-.3l4.69,1.1c1.44,1.46-1.78.34-1.25,2.13,5.61.48,5.74,4.86,10.08,5.64-.42,3,1.86,4.58,4.37,6s5.27,2.82,5.94,5.43l.55-1.15c1.59-.33.62,1.36,1.09,2.07.49-.85-.27-1.61.67-1.75,8.12,4.39,14.28,12.51,21.37,18.89,2.66,2.25,5.19-4.19,7.17.63L289,131.44c3.7.74,6.66,2.69,9.58,4.67,1.47,1,2.92,2,4.44,2.86a16.31,16.31,0,0,0,4.89,1.95c-.63.24-1,.83-1.57.48.35,2.17,4.54,2.8,5.26,1.64.83.68-.43,1.19-.23,2.12.74,1.59,4.22,0,4,1.85,0,.3-.63.26-.92.23,1.23-.21,3.67,2.44,3.87.3,1.75,2.09,4.6,1.8,5.84,3.76,2.23-1.25,3.34,3,5.2.54-1.7,2.68,2.71,4.39,4.84,3.85-.93.58.76,1.55-.42,2.41,1.65.85,3.41,1.15,3.89-.45a3.14,3.14,0,0,0,1.67,2.28,7.39,7.39,0,0,0,2.47.45c1.66.12,3.08.27,2.85,2.86,2.85.47,5.54,1,8.1,1.6,1.29.3,2.53.63,3.76.95s2.48.61,3.68.94c-1.48,2.8-5.12-1.92-6.31,1.11,4.82.83,8.43-.62,12.35,2,.93.88-1.17,1-1.76,1.3a24.07,24.07,0,0,1,6.46,2.25,15.89,15.89,0,0,0,6.32,1.54c-.12.27-.66.4-1.15.47.81.2,1.62,1.13,2.06-.24l-.89.07c-.45-2.41,4.61-2.87,5.13-3.85-2.76,3.34,3.44,2.45-.45,6.51a1.87,1.87,0,0,0,1.69-1.39c.65.56.69,1.18-.45,1.9,3,.34,2.56-1.44,5.07-.56-.24.65-.84.73-1.38,1.41,1.75-.84,3.47-1.68,5.41-.41-.27.35-.19,1-.83.73a15.64,15.64,0,0,0,5.54,0,8.23,8.23,0,0,1,5.44,1.14c-2.08,2.55,1.1,1.35.57,3.91l2.43-.11-.53-1.47c1.92.59,4.12-.76,5.54.53l-1.71.63,3.73.55-1.78-1.53c2.28-.75.66-3.26,3-1.83-.29.05.18.2.8.55a3.32,3.32,0,0,1,1.73,1.7h0c1.16-.58,2.34-1.21,3.61-.25.18.9-1,2.75-.84,3.34,1.44-1.9,4.7.47,6.38-1.53a3.27,3.27,0,0,0-.74,2.09l1.16-1.55a1.53,1.53,0,0,1,.49,2.1c2.67.82-.21-3.4,2.75-1.42-.29.1-.22.38-.8.55,3.13,1.31,6.49,0,9.33,1.4.48,2.76-2.72.17-2.06,2.54a17.16,17.16,0,0,0,3.42-.11c1.17-.16,2.35-.38,3.52-.56a16.17,16.17,0,0,1,6.68,0l-.75-.39c.49-1.81,1.21-1.24,2.12-.45s2,1.8,3.16,1c-.54.24-.86,2-.68,1.61a10.13,10.13,0,0,0,4.67-.06c.85-.16,1.76-.38,2.72-.61s2-.56,3.11-.82l-.58.94c1.7.88,4.54.57,6.4,1,.56-1,1.62-.77,1-2.17,2.88,2.69,5.67,1.79,8.27.87.65-.24,1.3-.48,1.94-.68a10.45,10.45,0,0,1,1.92-.5,5.12,5.12,0,0,1,3.95,1c-.6.06-1.37,1-.88.92l4.25-1.28c-.54-1.58-.69-.92-1.73-2.09a3.71,3.71,0,0,1,2.58-2c-1.76,1.35.34,2.57,1.31,3.34-.21-.47,0-1-.14-1.54,2.64,2.51-.09-3.28,3.21-1.82l0,.87c1.07-.62,1.92-1.84,3.16-1.84.84,1.76-1,1.1-.85,2.6,1.73-.38,2.7-4.15,4.6-2.62-.62.66-1.66.88-2.28,1.54,2.1,1.81,2.21,1.22,3.54,1.3l-.13,0,3.15.36-.88-.43c.54-2.57,1.54-3.12,2.7-3.42s2.48-.46,3.45-2.37c-1.93,3.64,0,1.81.38,3.9.9.38,2.21.71,2.06,1.37.86-2.07,2.69.56,3.85-2.44.29.63,1.47-.4,1.71,1.33,1.6-1.08-.81-1-.92-1.86,1-1.5,2.76-1.42,4.68-1.51a9.45,9.45,0,0,0,2.88-.48,4.61,4.61,0,0,0,2.37-2.18,10.31,10.31,0,0,0,2.46-3.75,10.66,10.66,0,0,1,2.15-3.64c1.46.5.33,2.61.33,2.61a4.59,4.59,0,0,0,2.47-.45,5.8,5.8,0,0,0,1.73-1.7c0,.68.54,1,1.36,1.38,1.09-.82-.43-2.56,1.59-2.59a9.46,9.46,0,0,1,.21,3.05c1.09-1.34,1.76-3.28,2.83-4.64,1,.78.12,2,0,3,1.34-1.39,3.5-3.57,2.9-5.4l-1.36.09c.5-.44,1.2,1.14,1,1.71-.52,2.11-2.27.73-2.71.19l.73-1c-1.59-1.33-2.44-.61-3.21.59s-1.44,2.92-2.53,3.36l-.6-3c-.28,1.07-.57,2.15-.88,3.24-.81-.42-1.86-1.7-1.1-2.61-2.09-.51-.75,1.63-2.74.82-.25-.16-.25-.31-.18-.48l-1,1.47c0-.69-1.15-1.73-.11-1.77a3.16,3.16,0,0,0-3,1.67c-.62.81-1.1,1.46-2,.67l.14-.26c-3.17,2.45.53,2.1-1.23,5.6-1.28-1.34-2.57-2.76-3.81-4.17l.42,2.13c-.41.07-1.21.2-1.38-.65-.88,1.9.57.78.24,2.38-1.26-.58-2.42.15-3.51.53s-2.06.57-2.79-1c-.17,1.76,2.16.63.52,2.33-1.67-3.32-2.1,1.38-4.31.24,0-1.94,1.87-1.48-.28-2.59-.16,3.34-3.49.19-4.73,1.15.27,1.24-.44,1.71-1.51,2a13.13,13.13,0,0,0-3.64,1.07c0-.43-1.23-.54-2.75-.59a24.93,24.93,0,0,1-4.54-.45v-.43c0,2.61-2.49,2.49-4.15,3.27a3.11,3.11,0,0,1,.94-3l-1.6.25a2.53,2.53,0,0,1-1.75,1.73l.19-1.95c-2.11.31-4.12,2.66-7,1.65-.06,1.78,2.61,4.8-.35,6.2-.17-1-.38-2.61.38-3-.25.14-.87.84-1.41.45l1.09-1.68c-1.32-.66-.59,1.39-1.63,1.28-.05-1.38-.81-1-.72-2.06.25-.14.92.54,1.28,0a4.44,4.44,0,0,1-3.09-2c.13.78.08,1.86-.76,2.07-2.17.19-.79-1.63-2.07-2.29-.5,1-1.89,0-1.9,2.1-.64,0-.76-1-1-1.55-1.11.9-5.23.18-4,2.4l.29.15c-.05,0-.12,0-.18.09h0a7.45,7.45,0,0,1-5.73.16c-1.91-.57-3.78-1.29-5.66-1l.06-.69a20.58,20.58,0,0,1-3.51.47,5.94,5.94,0,0,0-3.12.89,1.87,1.87,0,0,1-1-2.23c-1.72.31-2,1-4.28-.38,1.84-1-.43-1.13,1.83-.66-2.08-.86-2.39-2-5-.44,1-1.61-1.27-2.49-2.36-2.15l1.29,1.52a8.46,8.46,0,0,1-3.15-.62l.94-2.19c-1.92-1.79-4.07-.94-6.09-.32s-3.88.9-5-1.77c-1.5,1.32,2.1,1.66.67,3.29-1.95-.78-3.27-4.52-3.87-4.66-2.4-1.89-3.34,2.73-6,1.19a2.66,2.66,0,0,1-2.39,3.3c-1.93-.87-1.53-4.06-.11-4.35.49.07.65.39.56.65.71-.11,1.64-.21,1.09-1.31l-.47.73c-.76-1.1-3.48-1.78-2.48-2.91-1.69.34-1,1.13,0,1.86-2.19-1.88-3.93-1.16-6.29-2.67.28.55.38,1.6,0,1.47-3.51-2.07-2.15,1-4.83.54-1.07-1.7,1.44-2.7-1.46-2.56-1.3-1.34.36-2.21,1.19-2.64-2.83.73-4-2.46-5.22-3.18l1.44-.23a3.93,3.93,0,0,1-2.06-.29l.15,1.81c-.62-.52-1.22-.73-1-1.38-1.1.78-.35,2.8-2.33,3.71-.34-.57-1.15-.6-1.82-.77a1.2,1.2,0,0,1-1-1.63c2.73,1.85.42-2.16,3.08-1.59a2.12,2.12,0,0,1-1.78-.7c0-.27.26-.39.49-.43-2.14-2.95-2.16,1.83-5.1.63.82-1,.17-2.47-.41-2.41,1.17.49-.17,2.16-1.61,2.62-1.54-1.64-2.33-.14-3.28-.63l1,.86c-.85,1-1.74.49-3.22.33.25-.94,1.46-.15,1.14-.73-2.3,1.43-2.49-3.34-5-2.91-.6-1.19.82-2.19.23-3.08-2.89.49-1.75-2.63-4.64-2.46,0,1.83.3,1.51-2,2.26l4.37.65L368.8,159c1.17.54,2.91.14,3.5.71-1.73.72-1.45.39-1.43,1.92-.62-3-3.81-.09-5-2.47l1.75-3.74c-2-2.93-5.88-.2-9-3l.84,1.21c-1.19,1.25-2.31-.88-3.76-.86.72-1.19.21-2,.1-3-.39.95-2.56-1.37-4.12.94l-.78-2.42c-1.27-1-2.53-.57-3.81-.07s-2.57,1-3.82.08c1.52-.89.74-2.43,3.06-2.39-.9-.5-1.6-1.17-2.06-.33-.12-1.05-3.39.27-3.61-1.35-.67.33-1.48,1.53-2.45.87a1.1,1.1,0,0,1,.33-.59c-.33.59-2.05-.06-1.88,1.77-.38-2.66-2.37-3.66-4.37-4.58a13.75,13.75,0,0,1-2.77-1.49,3.68,3.68,0,0,1-1.47-2.58,51.29,51.29,0,0,1-6.56-2.75c.32-.29.36-.59.62-.27-1.77-2.55-3.54,2.51-5.58-.38-.26-2.76,2.1-.15,1.65-1.4,2-4.12-3.67-1.47-4.14-4.84l.59,0c-.6-2.16-4.31-.73-6.42-2.47a1.24,1.24,0,0,0,.38-.57c-2.8,1-6.18-.33-8.74-1.22,1.66-1,1.52-.14,2.09-1.92-1.12-.42-1.3,2.62-3.55,1.76-.1-1.23-1-2.86-.17-4.58l1.91,1.11c.43-2.7-2.44-1.48-3.17-2.47l.73-.83c-3-1.57-4.56.63-7.44-1.6l-.16.9c-3.18,1.1-.5-2.22-3.28-1.69l1.09-2.62c-1.45-.2-5.3-.44-7.54-1.37,2.29-.9,5.15-.18,7.23-.21-1.05-.76-3.72-2.35-5.07-1.63.59.08,1.52-.09,1.7.55a7.36,7.36,0,0,1-7-1c3.47-4-4.65-5.12-3.69-9.59-4.83-1.15-6.74-6.11-11.17-9-1,4.44-1.32-.83-3.68,2.75-1.16-.53-1.51-.88-1.43-1.17l-1.49-4.32c0-1.54,1.53,0,2-.86-2-1.93.17-2.14-.61-4.15-.62,1.44-2.09,1.17-3-.25l.58,2.91c-4.46-.51-.51-4.88-5-5.42l1.79-.34c-2.08-.57-5.9-4.47-9.5-2.88,0-.61.33-1.83,1.22-1.55-3.59-3.24-10.82-3.2-12.62-7.08l.9-.65c-.9-.27-2.4.71-2.7-.8.29-.32.89-.65.58-.93-.59,0-3,.13-3.59-1.06l1.49-.38A6.7,6.7,0,0,0,222,60.89c-2-.13-4,0-5.81-.77,1.72-2.55-.8-5.42-2.06-6.85l.29-.33a16.92,16.92,0,0,0-6.79-3,64.72,64.72,0,0,1-7.28-1.58c-.45-2.24-2.53-3.94-4.91-5.6-1.19-.83-2.46-1.65-3.63-2.53a18.47,18.47,0,0,1-3.18-2.79c.39.86-1.32,2-2.25,1.83-.72-1.12-3.9.25-2.34-2.12l.34.26c.6-2.85-1.9-3.42-3.52-4.42l-2.07,3.07c-.85-3.57-3.93-4.78-6.87-5.61s-5.58-1.54-5.7-4.31c-1.49.27-2.82-.42-4.29-.14l.94-1.75c-.68-.49-1.28-.93-1.86-1.32s-1.16-.7-1.76-1a30.05,30.05,0,0,0-4.54-1.86l1.37-.92C154,18.05,151,23.1,149,22.31l.63-3a15.61,15.61,0,0,1-2.64-1.6c-.86-.59-1.72-1.18-2.61-1.72a8.2,8.2,0,0,0-6.07-1.34c.23-.38.66-1.13,1.32-1-1.75-.79-6.2-4.72-7-.62.89-2.49-3.91-1.66-6.36-1.28l1-1.73c-2.59,1.73-2.85,2.36-5.51,2.15-.49-.44,0-1.66.6-.91-1.61-1.64-2,1.18-4.11-.5l1.26-.92c-2-.74-2-.06-3.55,1-1.49.38-3.67-1.59-3.49-3.38-.57,1-2.06,2-3.11,1.18a1.24,1.24,0,0,1,.83-1.09c-1.51-1.17-3-.88-4.22-.68s-2.36.39-3.32-.82a1.77,1.77,0,0,0-.14-1.23c2.74.69,4.92,1.31,4.68,1.4.45-1.74-1.73-2.58.67-4.57-2.17.89-5.89,3-7.87,1.72a2.35,2.35,0,0,1-.16-.68l.27-.14a1.48,1.48,0,0,0-1.44,0,4.13,4.13,0,0,0-1.73-.88c0-1.51-2.48-1.24-3.61-1.5-.24,2-1.66,1.39-.55,3.23-.15-.17.25-.2,1-.15a1.37,1.37,0,0,0,.51-.12l-.11.16c.75.07,1.73.19,2.83.34-1.09.83-2.15,1.5-3.2.22C93,5,92.14,6.17,91.69,6.71c-1-3-3.81-4.93-4-6.67C84,.78,79.25-.16,76.84,3.42c-1,.44-1.07-1.1-1.42-1.69.6-.35,1.28-.27,1.63-.79-2.06.87-6,.16-6.46,2.73-2.48-1.25,1.43-2.35-2-2L69,.87c-3.45-2-6.3-.23-9,1.44A13.87,13.87,0,0,1,55.8,4.46a6.52,6.52,0,0,1-2.43.12,9.51,9.51,0,0,1-2.85-.8c.58.22.86.32,1,.72a20.18,20.18,0,0,0-3.3,0c-.55,0-1.09.12-1.64.21A9.11,9.11,0,0,0,45,5.11a59.55,59.55,0,0,0-6.28,2.26c-1,.46-2,.92-3,1.33s-2.07.76-3.08,1.18a21.21,21.21,0,0,1-3.18.95c-.54.13-1.11.21-1.67.31s-1.13.19-1.71.24c-2.54.55-2,2.08-2.61,3.93l-1.55-1.52c-.3,1.16-.58,2.31-.83,3.44-1,1.65-2.9,1.58-5,1.72a5.76,5.76,0,0,0-2.85.77,3.93,3.93,0,0,0-1.8,2.76c.46.2.93.42,1.4.64-1.4.93-3.1,4.18-4.07,2.9.07.3.72,1.4-.25,1.37l-.86-.7C7.19,28.1,6.83,29.56,6.5,31c-1.28,1-2.06.25-2.93-.33s-1.79-1-3.28,1A5.79,5.79,0,0,0,0,33.4a10.44,10.44,0,0,0,.16,2c.24,1.29.67,2.44,1.18,2.23a1.91,1.91,0,0,1,2.49-.8c-.1.52-.17,1.07-.23,1.6a25.52,25.52,0,0,0,4.18,2.38l1.06.38.52.17a5.17,5.17,0,0,0,.55.07,5.34,5.34,0,0,0,1.13,0,6.47,6.47,0,0,0,1.23-.3c-.21-.91-.38-1.86-.51-2.84l1.7.36a15.91,15.91,0,0,0-.92,1.5c1.75,0,1.05-1.21.76-2.35a2.93,2.93,0,0,0,1.92.34c-.39-1.17-.75-2.37-1.07-3.62,1.13.64,1.32,2.36,2.76,1.75-.41-1.69-2.82-1.14-2.38-3,1.84.18,2.48,1.25,2.41-.53a1.62,1.62,0,0,1,.87,1.62c0-1.49,1.74-2.31,1-4,2,.61,2.57-2.85,4.44-.4A5.36,5.36,0,0,1,24,26.16c.34,2.05,1.15,1.52,2.07.92s2.13-1.12,3,.68a3.25,3.25,0,0,1,1.6-3.57,9.34,9.34,0,0,0,3.13-2.91c0,.29,0,.88-.3.82,1.39-.32,2.18.43,3.22.64-1-2.55.75-4.1,1.33-6,2.58,1.88.16,3.36,1.61,5.54-.91-2,2-3.06.81-4.61,1.78,1.09,1.34.36,2.67,2.29-.84-3.37,1-.89,1.43-3.2,2.32,1.12,1.33,3,3.06,1.41a1.11,1.11,0,0,1,.31,1.5A3.88,3.88,0,0,1,47.39,20.56ZM98,15.36v0l-1.1-.14Zm4.38,1a12.45,12.45,0,0,0-1.88-.52c0-.7.32-1.34.76-1.2C100.9,15,101.85,15.65,102.36,16.36ZM95.56.94c.81-.15,1,.28,1,.69a9,9,0,0,0-1.37,0c0,.07-.09.14-.13.22A3.44,3.44,0,0,1,95.56.94Z" class="cls-2"/>
            <path d="M93.75,3.25c-.12,0-.19.09-.34.09a5.63,5.63,0,0,0,.37.51l.37-.56Z" class="cls-2"/>
            <path d="M466,184.63l-.09,0a.79.79,0,0,1,.2.29A1.22,1.22,0,0,1,466,184.63Z" class="cls-2"/>
            <polygon points="158.91 42.38 159.13 41.93 158.58 42.14 158.91 42.38" class="cls-2"/>
            <path d="M491.92,189.91a.92.92,0,0,0,.41.45A1.33,1.33,0,0,0,491.92,189.91Z" class="cls-2"/>
            <path d="M503.13,188.4l1.72.36A7,7,0,0,0,503.13,188.4Z" class="cls-2"/>
            <path d="M511.86,187.28a3.61,3.61,0,0,0-.06-.86h0Z" class="cls-2"/>
            <path d="M376.17,175.38a1,1,0,0,0-.34,0C375,175.41,375.51,175.46,376.17,175.38Z" class="cls-2"/>
            <path d="M416.28,183.67a7.17,7.17,0,0,1-1.5.61C415.45,184.59,416,184.76,416.28,183.67Z" class="cls-2"/>
            <path d="M333.82,158.13l0,0-.25-.13Z" class="cls-2"/>
            <path d="M413,183.76a1.81,1.81,0,0,0,1.82.52A3.19,3.19,0,0,0,413,183.76Z" class="cls-2"/>
            <path d="M547.24,172.45l.41-.17a.84.84,0,0,1-.14-.29Z" class="cls-2"/>
            <path d="M547.51,172l.27-.46C547.6,171.65,547.45,171.77,547.51,172Z" class="cls-2"/>
            <path d="M548.34,170.55c-.18.34-.37.65-.56,1C548.08,171.33,548.48,171.15,548.34,170.55Z" class="cls-2"/>
            <path d="M536.58,177.68l.21.7A1.91,1.91,0,0,0,536.58,177.68Z" class="cls-2"/>
            <path d="M533.47,179.44c.83-.22,2.6.42,3.48-.51l-.16-.55C536.76,179.58,533.66,178,533.47,179.44Z" class="cls-2"/>
            <path d="M516.88,176.72c1-.09,1.86-.28,2.8-.41-.72-.55-1.65-1.29-.55-1.9C515.12,173.49,520.4,175.79,516.88,176.72Z" class="cls-2"/>
            <path d="M508.34,178.14c1.34-.71-.31-1.06-.34-1.49C507.28,177.55,507.1,177.78,508.34,178.14Z" class="cls-2"/>
            <path d="M446.62,181.72,447,180C445.81,180.07,446.88,180.65,446.62,181.72Z" class="cls-2"/>
            <polygon points="433.18 189.08 434.15 190.39 434.97 188.87 433.18 189.08" class="cls-2"/>
            <polygon points="428.52 175.27 429.06 175.13 427.07 175.34 428.52 175.27" class="cls-2"/>
            <path d="M331.24,137l-.79,2.08C331.34,139.15,332.71,137.07,331.24,137Z" class="cls-2"/>
            <path d="M291.3,114.46c.21-1.19-.44-2.52-1.71-2.08C290.35,113.09,290.71,114.39,291.3,114.46Z" class="cls-2"/>
            <polygon points="178.06 32.49 179.25 32.31 177.39 31.97 178.06 32.49" class="cls-2"/>
        </g>
    </g>
</svg>
